<svg width="36" height="21" viewBox="0 0 36 21" fill="none" xmlns="http://www.w3.org/2000/svg">
<path fill-rule="evenodd" clip-rule="evenodd" d="M34.2495 2.12797C34.4895 1.34177 34.2495 0.764053 33.1071 0.764053H29.3296C28.3691 0.764053 27.9262 1.26311 27.6861 1.81342C27.6861 1.81342 25.7649 6.41267 23.0435 9.40012C22.1632 10.2649 21.7629 10.5402 21.2827 10.5402C21.0425 10.5402 20.6823 10.2649 20.6823 9.47882V2.12797C20.6823 1.18453 20.4163 0.764053 19.6157 0.764053H13.6795C13.0793 0.764053 12.7183 1.20192 12.7183 1.61691C12.7183 2.51128 14.0789 2.71754 14.2192 5.23338V10.6974C14.2192 11.8953 13.9989 12.1126 13.5187 12.1126C12.238 12.1126 9.12292 7.4928 7.27537 2.20655C6.9133 1.17909 6.55015 0.764053 5.58471 0.764053H1.80712C0.72781 0.764053 0.511935 1.26311 0.511935 1.81342C0.511935 2.79619 1.79262 7.67059 6.47501 14.1173C9.59659 18.5199 13.9947 20.9065 17.9967 20.9065C20.398 20.9065 20.6951 20.3764 20.6951 19.4634V16.1359C20.6951 15.0758 20.9225 14.8642 21.6829 14.8642C22.2432 14.8642 23.2037 15.1394 25.4448 17.2621C28.0062 19.7779 28.4285 20.9065 29.8691 20.9065H33.6468C34.726 20.9065 35.2657 20.3764 34.9543 19.3303C34.6136 18.2878 33.3909 16.7753 31.7682 14.9822C30.8877 13.9601 29.567 12.8594 29.1667 12.309C28.6065 11.6015 28.7666 11.287 29.1667 10.6582C29.1667 10.6582 33.7692 4.28994 34.2495 2.12797Z" fill="white"/>
</svg>
