<svg width="35" height="35" viewBox="0 0 35 35" fill="none" xmlns="http://www.w3.org/2000/svg">
<path d="M17.2649 1.43874C13.1119 1.39654 9.1121 3.00496 6.14449 5.91053C3.17687 8.8161 1.48429 12.7811 1.43874 16.934C1.45475 20.216 2.51053 23.4085 4.45444 26.053C6.39835 28.6974 9.13037 30.6577 12.2581 31.6523C13.0494 31.7962 13.3372 31.3214 13.3372 30.9042C13.3372 30.487 13.3372 29.5662 13.3372 28.2713C8.9346 29.2065 7.99941 26.1995 7.99941 26.1995C7.70634 25.2555 7.08327 24.4486 6.24415 23.9263C4.8054 22.9767 6.35925 22.9911 6.35925 22.9911C6.85655 23.0576 7.33235 23.2358 7.75096 23.5124C8.16956 23.789 8.52012 24.1567 8.77633 24.5881C9.22282 25.3623 9.95543 25.9303 10.8165 26.1698C11.6775 26.4093 12.5982 26.3011 13.3803 25.8686C13.4607 25.0807 13.8175 24.3468 14.3874 23.7968C10.8769 23.4083 7.19372 22.0847 7.19372 16.1427C7.16232 14.5927 7.73503 13.0913 8.79072 11.956C8.30993 10.6252 8.3667 9.15948 8.94898 7.86992C8.94898 7.86992 10.287 7.45268 13.2652 9.45254C15.8577 8.76171 18.5858 8.76171 21.1783 9.45254C24.1997 7.45268 25.4945 7.86992 25.4945 7.86992C26.0768 9.15948 26.1336 10.6252 25.6528 11.956C26.733 13.0705 27.3368 14.5618 27.3361 16.1139C27.3361 22.0703 23.6242 23.3796 20.1424 23.768C20.5236 24.1382 20.8181 24.5882 21.0047 25.0857C21.1913 25.5833 21.2653 26.116 21.2215 26.6455V30.8898C21.2215 30.8898 21.5092 31.7962 22.3005 31.638C25.4194 30.6372 28.1422 28.6764 30.0801 26.0357C32.018 23.395 33.0718 20.2094 33.0911 16.934C33.0455 12.7811 31.353 8.8161 28.3853 5.91053C25.4177 3.00496 21.4179 1.39654 17.2649 1.43874Z" fill="white"/>
</svg>
