<svg width="35" height="35" viewBox="0 0 35 35" fill="none" xmlns="http://www.w3.org/2000/svg">
<path d="M0 34.6782L2.43992 25.7758C0.939699 23.171 0.140131 20.2118 0.148373 17.1866C0.148373 7.70718 7.8638 0 17.3432 0C21.9428 0 26.2621 1.78872 29.5016 5.03646C32.7493 8.28419 34.5381 12.6035 34.5298 17.1948C34.5298 26.6743 26.8144 34.3814 17.335 34.3814H17.3267C14.4499 34.3814 11.6226 33.6561 9.10848 32.2877L0 34.6782ZM9.53712 29.1719L10.0564 29.4851C12.2491 30.7875 14.7632 31.4717 17.3267 31.4799H17.335C25.207 31.4799 31.62 25.0751 31.62 17.1948C31.62 13.3783 30.1363 9.79265 27.4409 7.08896C24.7454 4.38526 21.1515 2.90153 17.335 2.90153C9.45469 2.90153 3.04166 9.30632 3.04166 17.1866C3.04166 19.882 3.79177 22.5116 5.22604 24.7866L5.56401 25.3307L4.12149 30.5979L9.53712 29.1719Z" fill="black" fill-opacity="0.24"/>
<path d="M0.780005 33.7593L3.10823 25.2686C1.67548 22.7857 0.918396 19.9609 0.918396 17.0791C0.918396 8.04296 8.27754 0.691956 17.3055 0.691956C21.6933 0.691956 25.8044 2.40149 28.8978 5.49494C31.9912 8.58838 33.6926 12.7076 33.6926 17.0872C33.6926 26.1233 26.3335 33.4743 17.3055 33.4743H17.2974C14.554 33.4743 11.8594 32.7824 9.46608 31.4799L0.780005 33.7593Z" fill="url(#paint0_linear_2_21)"/>
<path d="M0.185738 34.3535L2.59537 25.5616C1.11377 22.9892 0.324129 20.0667 0.332269 17.0791C0.332269 7.71733 7.95192 0.105827 17.3137 0.105827C21.8561 0.105827 26.1218 1.87235 29.3211 5.07976C32.5285 8.28718 34.2951 12.5529 34.2869 17.0872C34.2869 26.449 26.6673 34.0605 17.3055 34.0605H17.2974C14.4563 34.0605 11.6641 33.3441 9.18115 31.9927L0.185738 34.3535ZM9.60447 28.9156L10.1173 29.2249C12.2827 30.5111 14.7656 31.1868 17.2974 31.195H17.3055C25.0798 31.195 31.4133 24.8697 31.4133 17.0872C31.4133 13.3181 29.9479 9.77692 27.286 7.10678C24.624 4.43665 21.0746 2.97134 17.3055 2.97134C9.52306 2.97134 3.18964 9.29662 3.18964 17.0791C3.18964 19.7411 3.93044 22.3379 5.34691 24.5848L5.68068 25.122L4.25606 30.3239L9.60447 28.9156Z" fill="white"/>
<path d="M13.0642 9.97229C12.7468 9.26405 12.413 9.24777 12.1118 9.23963C11.8676 9.23149 11.5826 9.23149 11.2977 9.23149C11.0128 9.23149 10.5569 9.33732 10.1662 9.76063C9.77542 10.1839 8.68457 11.2097 8.68457 13.3018C8.68457 15.3858 10.2069 17.4047 10.4185 17.6896C10.6302 17.9745 13.3573 22.3949 17.6637 24.0963C21.2456 25.5128 21.9783 25.2279 22.7516 25.1546C23.5331 25.0813 25.2589 24.1289 25.6171 23.1357C25.9672 22.1426 25.9672 21.2959 25.8613 21.1168C25.7555 20.9377 25.4706 20.8319 25.0473 20.6203C24.624 20.4086 22.54 19.3829 22.1492 19.2363C21.7585 19.0898 21.4735 19.0247 21.1967 19.448C20.9118 19.8713 20.0978 20.8238 19.8535 21.1087C19.6093 21.3936 19.357 21.4262 18.9336 21.2145C18.5103 21.0029 17.1427 20.5551 15.5227 19.1061C14.2609 17.9827 13.4062 16.5906 13.1619 16.1673C12.9177 15.744 13.1375 15.5161 13.3492 15.3044C13.5364 15.1172 13.7725 14.8078 13.9841 14.5636C14.1958 14.3194 14.2691 14.1403 14.4075 13.8554C14.5458 13.5705 14.4807 13.3262 14.3749 13.1146C14.2691 12.9029 13.4387 10.8108 13.0642 9.97229Z" fill="white"/>
<defs>
<linearGradient id="paint0_linear_2_21" x1="17.2358" y1="33.7569" x2="17.2358" y2="0.690107" gradientUnits="userSpaceOnUse">
<stop stop-color="#20B038"/>
<stop offset="1" stop-color="#60D66A"/>
</linearGradient>
</defs>
</svg>
